<?xml version="1.0" encoding="UTF-8"?>
<svg id="Capa_1" data-name="Capa 1" xmlns="http://www.w3.org/2000/svg" viewBox="0 0 297.64 184.25">
  <defs>
    <style>
      .cls-1 {
        fill: #14bed6;
        stroke-width: 0px;
      }
    </style>
  </defs>
  <path class="cls-1" d="M205.69,67.09c.08-1.21.12-2.43.12-3.65,0-31.54-25.66-57.2-57.2-57.2s-57.2,25.66-57.2,57.2,25.66,57.2,57.2,57.2c4.86,0,9.58-.61,14.09-1.76v.5h.05c.03.38.07.77.07,1.16,0,7.84-6.38,14.21-14.21,14.21s-14.21-6.38-14.21-14.21h-42.99c0,31.54,25.66,57.2,57.2,57.2s57.2-25.66,57.2-57.2c0-1.22-.05-2.43-.12-3.63v-49.81ZM148.61,77.65c-7.84,0-14.21-6.38-14.21-14.21s6.38-14.21,14.21-14.21,14.21,6.38,14.21,14.21h-.12v1.78c-.88,7-6.86,12.44-14.09,12.44Z"/>
  <g>
    <path class="cls-1" d="M84.72,7.98c-25.35,5.83-44.26,28.52-44.26,55.64s18.91,49.81,44.26,55.64V7.98Z"/>
    <path class="cls-1" d="M33.77,16.01C18.14,26.2,7.8,43.82,7.8,63.87s10.34,37.67,25.97,47.86V16.01Z"/>
  </g>
  <g>
    <path class="cls-1" d="M211.77,119.26c25.35-5.83,44.26-28.52,44.26-55.64,0-27.12-18.91-49.81-44.26-55.64v111.28Z"/>
    <path class="cls-1" d="M262.72,111.23c15.63-10.19,25.97-27.81,25.97-47.86s-10.34-37.67-25.97-47.86v95.72Z"/>
  </g>
</svg>